<?xml version="1.0" encoding="UTF-8"?>
<svg xmlns="http://www.w3.org/2000/svg" width="1086" height="447" viewBox="0 0 1086 447" role="img" aria-labelledby="logoTitle logoDesc">
  <title id="logoTitle">XJOURNEY</title>
  <desc id="logoDesc">Growth Navigation Platform</desc>
  <defs>
    <linearGradient id="logoGradient" x1="7%" y1="93%" x2="93%" y2="7%">
      <stop offset="0" stop-color="#9BE724"/>
      <stop offset="0.30" stop-color="#39CE61"/>
      <stop offset="0.64" stop-color="#05BF8D"/>
      <stop offset="1" stop-color="#04AEC0"/>
    </linearGradient>
    <linearGradient id="wordGradient" x1="0" y1="0" x2="0" y2="1">
      <stop offset="0" stop-color="#10171F"/>
      <stop offset="0.55" stop-color="#0A1016"/>
      <stop offset="1" stop-color="#05090E"/>
    </linearGradient>
  </defs>
  <rect width="1086" height="447" fill="#fff"/>
  <g><path d="M 195.0,239.0 L 195.0,241.0 L 238.0,284.0 L 244.0,287.0 L 252.0,289.0 L 293.0,289.0 L 289.0,283.0 L 222.0,215.0 Z" fill="url(#logoGradient)" fill-rule="evenodd"/>
<path d="M 84.0,127.0 L 148.0,193.0 L 153.0,191.0 L 164.0,181.0 L 178.0,171.0 L 175.0,166.0 L 142.0,133.0 L 136.0,129.0 L 130.0,127.0 Z" fill="url(#logoGradient)" fill-rule="evenodd"/>
<path d="M 308.0,90.0 L 247.0,105.0 L 215.0,126.0 L 218.0,126.0 L 221.0,124.0 L 244.0,118.0 L 247.0,119.0 L 79.0,286.0 L 76.0,294.0 L 116.0,294.0 L 126.0,290.0 L 281.0,133.0 L 283.0,132.0 L 291.0,136.0 Z" fill="url(#logoGradient)" fill-rule="evenodd"/></g>
  <path d="M 349.000,216.908 L 369.729,216.908 L 379.628,203.843 C 381.915,200.842 384.071,197.886 386.211,194.871 C 388.351,197.886 390.491,200.842 392.647,203.843 L 402.187,216.908 L 423.471,216.908 L 396.616,181.762 L 420.874,149.092 L 400.651,149.092 L 393.251,159.332 C 390.899,162.565 388.661,165.842 386.407,169.076 C 384.267,165.842 382.078,162.565 379.775,159.332 L 372.473,149.092 L 351.695,149.092 L 376.361,182.228 L 349.000,216.908 Z M 464.031,217.956 C 480.823,217.956 490.624,210.222 490.624,196.283 L 490.624,149.092 L 472.247,149.092 L 472.247,196.021 C 472.247,201.337 469.078,204.294 463.770,204.294 C 458.412,204.294 455.243,201.337 455.243,196.021 L 455.243,190.923 L 438.156,190.923 L 438.156,195.876 C 438.156,210.077 447.696,217.956 464.031,217.956 Z M 541.704,218.000 C 562.220,218.000 578.049,205.124 578.049,183.044 C 578.049,160.919 562.220,148.000 541.704,148.000 C 521.073,148.000 505.309,160.919 505.309,183.044 C 505.309,205.022 521.073,218.000 541.704,218.000 Z M 541.704,203.712 C 530.776,203.712 523.784,196.152 523.784,183.044 C 523.784,169.891 530.776,162.288 541.704,162.288 C 552.566,162.288 559.558,169.891 559.558,183.044 C 559.558,196.152 552.566,203.712 541.704,203.712 Z M 626.923,218.000 C 646.280,218.000 658.940,208.037 658.940,193.050 L 658.940,149.092 L 641.020,149.092 L 641.020,191.739 C 641.020,198.934 635.401,204.076 626.923,204.076 C 618.511,204.076 612.793,198.876 612.793,191.739 L 612.793,149.092 L 594.874,149.092 L 594.874,193.050 C 594.874,208.037 607.485,218.000 626.923,218.000 Z M 675.863,216.908 L 694.240,216.908 L 694.240,194.375 L 706.082,194.375 L 718.481,216.908 L 737.887,216.908 L 723.283,191.055 C 731.255,187.370 735.894,180.728 735.894,172.032 C 735.894,157.963 724.819,149.092 707.210,149.092 L 675.863,149.092 L 675.863,216.908 Z M 694.240,181.500 L 694.240,162.521 L 705.935,162.521 C 713.335,162.521 717.925,166.250 717.925,172.032 C 717.925,177.757 713.335,181.500 705.984,181.500 L 694.240,181.500 Z M 754.810,216.908 L 773.187,216.908 L 773.187,188.637 C 773.187,185.826 773.138,180.218 772.876,173.620 C 776.813,180.000 780.439,185.549 782.628,188.680 L 802.442,216.908 L 821.473,216.908 L 821.473,149.092 L 803.096,149.092 L 803.096,178.485 C 803.096,181.543 803.210,187.049 803.357,192.424 C 800.401,187.544 797.183,182.447 795.386,179.898 L 773.807,149.092 L 754.810,149.092 L 754.810,216.908 Z M 838.396,216.908 L 895.062,216.908 L 895.062,202.983 L 856.773,202.983 L 856.773,189.598 L 892.154,189.598 L 892.154,176.082 L 856.773,176.082 L 856.773,163.017 L 895.062,163.017 L 895.062,149.092 L 838.396,149.092 L 838.396,216.908 Z M 935.572,216.908 L 953.378,216.908 L 953.378,192.642 L 981.000,149.092 L 960.124,149.092 L 948.689,168.799 C 947.252,171.261 945.880,173.707 944.606,176.169 C 943.234,173.707 941.796,171.261 940.310,168.799 L 928.320,149.092 L 907.346,149.092 L 935.572,192.642 L 935.572,216.908 Z" fill="url(#wordGradient)" fill-rule="evenodd"/>
  <path d="M 359.275,271.000 C 363.148,271.000 365.950,268.222 365.950,263.788 L 365.950,261.774 L 359.639,261.774 L 359.639,263.987 L 363.557,263.987 C 363.502,266.788 361.820,268.550 359.286,268.550 C 356.463,268.550 354.424,266.223 354.424,262.000 C 354.424,257.765 356.498,255.447 359.190,255.447 C 361.291,255.447 362.719,256.730 363.299,258.778 L 365.809,258.778 C 365.274,255.364 362.613,253.000 359.169,253.000 C 355.025,253.000 352.000,256.410 352.000,262.011 C 352.000,267.552 354.929,271.000 359.275,271.000 Z M 377.610,270.763 L 380.055,270.763 L 380.055,264.142 L 383.317,264.142 C 383.361,264.142 383.413,264.142 383.457,264.142 L 386.698,270.763 L 389.476,270.763 L 385.957,263.683 C 387.900,262.881 388.875,261.093 388.875,258.740 C 388.875,255.507 387.042,253.237 383.337,253.237 L 377.610,253.237 L 377.610,270.763 Z M 380.055,261.846 L 380.055,255.529 L 383.059,255.529 C 385.421,255.529 386.396,256.764 386.396,258.740 C 386.396,260.705 385.421,261.846 383.080,261.846 L 380.055,261.846 Z M 407.797,271.000 C 411.941,271.000 414.997,267.609 414.997,262.011 C 414.997,256.388 411.941,253.000 407.797,253.000 C 403.646,253.000 400.576,256.388 400.576,262.011 C 400.576,267.609 403.646,271.000 407.797,271.000 Z M 407.797,268.550 C 405.050,268.550 403.001,266.246 403.001,262.011 C 403.001,257.765 405.050,255.447 407.797,255.447 C 410.523,255.447 412.573,257.754 412.573,262.011 C 412.573,266.246 410.523,268.550 407.797,268.550 Z M 429.768,270.763 L 432.600,270.763 L 435.131,260.378 C 435.443,259.083 435.660,257.788 435.893,256.354 C 436.130,257.871 436.377,259.199 436.655,260.378 L 439.199,270.763 L 442.022,270.763 L 446.375,253.237 L 443.780,253.237 L 441.472,263.280 C 441.139,264.812 440.841,266.479 440.562,268.139 C 440.260,266.479 439.962,264.812 439.594,263.280 L 437.246,253.237 L 434.564,253.237 L 432.192,263.280 C 431.828,264.823 431.515,266.517 431.227,268.211 C 430.959,266.517 430.657,264.823 430.314,263.280 L 428.006,253.237 L 425.431,253.237 L 429.768,270.763 Z M 457.228,255.541 L 462.217,255.541 L 462.217,270.763 L 464.676,270.763 L 464.676,255.541 L 469.644,255.541 L 469.644,253.237 L 457.228,253.237 L 457.228,255.541 Z M 481.304,270.763 L 483.748,270.763 L 483.748,262.952 L 491.666,262.952 L 491.666,270.763 L 494.124,270.763 L 494.124,253.237 L 491.666,253.237 L 491.666,260.645 L 483.748,260.645 L 483.748,253.237 L 481.304,253.237 L 481.304,270.763 Z M 527.758,270.763 L 530.237,270.763 L 530.237,261.413 C 530.237,260.506 530.152,258.695 530.052,256.493 C 531.212,258.846 531.824,260.058 532.606,261.435 L 538.004,270.763 L 540.836,270.763 L 540.836,253.237 L 538.357,253.237 L 538.357,263.212 C 538.357,264.221 538.402,265.858 538.519,267.552 C 537.812,265.870 537.091,264.541 536.600,263.671 L 530.581,253.237 L 527.758,253.237 L 527.758,270.763 Z M 551.271,270.763 L 553.921,270.763 L 555.350,266.141 L 561.636,266.141 L 563.106,270.763 L 565.756,270.763 L 559.964,253.237 L 556.960,253.237 L 551.271,270.763 Z M 556.047,263.905 L 556.936,261.010 C 557.334,259.670 557.829,257.848 558.450,255.341 C 559.082,257.822 559.566,259.610 559.995,261.010 L 560.919,263.905 L 556.047,263.905 Z M 581.976,270.763 L 584.970,270.763 L 590.676,253.237 L 588.026,253.237 L 585.001,262.986 C 584.603,264.315 584.112,266.118 583.487,268.610 C 582.855,266.163 582.350,264.315 581.942,262.986 L 578.831,253.237 L 576.191,253.237 L 581.976,270.763 Z M 604.781,253.237 L 602.336,253.237 L 602.336,270.763 L 604.781,270.763 L 604.781,253.237 Z M 628.829,271.000 C 632.702,271.000 635.504,268.222 635.504,263.788 L 635.504,261.774 L 629.193,261.774 L 629.193,263.987 L 633.110,263.987 C 633.056,266.788 631.373,268.550 628.839,268.550 C 626.017,268.550 623.978,266.223 623.978,262.000 C 623.978,257.765 626.051,255.447 628.743,255.447 C 630.844,255.447 632.273,256.730 632.853,258.778 L 635.363,258.778 C 634.827,255.364 632.166,253.000 628.723,253.000 C 624.578,253.000 621.553,256.410 621.553,262.011 C 621.553,267.552 624.482,271.000 628.829,271.000 Z M 645.938,270.763 L 648.588,270.763 L 650.017,266.141 L 656.303,266.141 L 657.773,270.763 L 660.424,270.763 L 654.631,253.237 L 651.627,253.237 L 645.938,270.763 Z M 650.714,263.905 L 651.603,261.010 C 652.001,259.670 652.496,257.848 653.117,255.341 C 653.749,257.822 654.233,259.610 654.662,261.010 L 655.586,263.905 L 650.714,263.905 Z M 671.277,255.541 L 676.266,255.541 L 676.266,270.763 L 678.724,270.763 L 678.724,255.541 L 683.692,255.541 L 683.692,253.237 L 671.277,253.237 L 671.277,255.541 Z M 697.797,253.237 L 695.352,253.237 L 695.352,270.763 L 697.797,270.763 L 697.797,253.237 Z M 721.790,271.000 C 725.934,271.000 728.990,267.609 728.990,262.011 C 728.990,256.388 725.934,253.000 721.790,253.000 C 717.639,253.000 714.569,256.388 714.569,262.011 C 714.569,267.609 717.639,271.000 721.790,271.000 Z M 721.790,268.550 C 719.043,268.550 716.993,266.246 716.993,262.011 C 716.993,257.765 719.043,255.447 721.790,255.447 C 724.516,255.447 726.566,257.754 726.566,262.011 C 726.566,266.246 724.516,268.550 721.790,268.550 Z M 740.650,270.763 L 743.129,270.763 L 743.129,261.413 C 743.129,260.506 743.043,258.695 742.943,256.493 C 744.104,258.846 744.715,260.058 745.498,261.435 L 750.895,270.763 L 753.728,270.763 L 753.728,253.237 L 751.249,253.237 L 751.249,263.212 C 751.249,264.221 751.293,265.858 751.410,267.552 C 750.703,265.870 749.982,264.541 749.491,263.671 L 743.472,253.237 L 740.650,253.237 L 740.650,270.763 Z M 787.362,270.763 L 789.806,270.763 L 789.806,264.624 L 793.068,264.624 C 796.780,264.624 798.627,262.166 798.627,258.928 C 798.627,255.695 796.793,253.237 793.089,253.237 L 787.362,253.237 L 787.362,270.763 Z M 789.806,262.354 L 789.806,255.529 L 792.811,255.529 C 795.183,255.529 796.148,256.952 796.148,258.928 C 796.148,260.905 795.183,262.354 792.831,262.354 L 789.806,262.354 Z M 810.287,270.763 L 819.976,270.763 L 819.976,268.455 L 812.732,268.455 L 812.732,253.237 L 810.287,253.237 L 810.287,270.763 Z M 830.410,270.763 L 833.061,270.763 L 834.489,266.141 L 840.776,266.141 L 842.246,270.763 L 844.896,270.763 L 839.104,253.237 L 836.100,253.237 L 830.410,270.763 Z M 835.186,263.905 L 836.076,261.010 C 836.474,259.670 836.968,257.848 837.590,255.341 C 838.221,257.822 838.706,259.610 839.135,261.010 L 840.058,263.905 L 835.186,263.905 Z M 855.749,255.541 L 860.738,255.541 L 860.738,270.763 L 863.196,270.763 L 863.196,255.541 L 868.165,255.541 L 868.165,253.237 L 855.749,253.237 L 855.749,255.541 Z M 879.825,270.763 L 882.269,270.763 L 882.269,263.468 L 889.050,263.468 L 889.050,261.176 L 882.269,261.176 L 882.269,255.541 L 889.771,255.541 L 889.771,253.237 L 879.825,253.237 L 879.825,270.763 Z M 908.092,271.000 C 912.236,271.000 915.292,267.609 915.292,262.011 C 915.292,256.388 912.236,253.000 908.092,253.000 C 903.941,253.000 900.872,256.388 900.872,262.011 C 900.872,267.609 903.941,271.000 908.092,271.000 Z M 908.092,268.550 C 905.345,268.550 903.296,266.246 903.296,262.011 C 903.296,257.765 905.345,255.447 908.092,255.447 C 910.818,255.447 912.868,257.754 912.868,262.011 C 912.868,266.246 910.818,268.550 908.092,268.550 Z M 926.952,270.763 L 929.397,270.763 L 929.397,264.142 L 932.659,264.142 C 932.703,264.142 932.755,264.142 932.799,264.142 L 936.041,270.763 L 938.818,270.763 L 935.299,263.683 C 937.242,262.881 938.217,261.093 938.217,258.740 C 938.217,255.507 936.384,253.237 932.679,253.237 L 926.952,253.237 L 926.952,270.763 Z M 929.397,261.846 L 929.397,255.529 L 932.401,255.529 C 934.763,255.529 935.738,256.764 935.738,258.740 C 935.738,260.705 934.763,261.846 932.422,261.846 L 929.397,261.846 Z M 950.478,270.763 L 952.858,270.763 L 952.858,261.330 C 952.858,259.986 952.806,257.743 952.761,255.906 C 953.373,258.070 954.008,260.269 954.372,261.330 L 957.688,270.763 L 959.779,270.763 L 963.052,261.330 C 963.415,260.235 964.082,257.976 964.652,255.846 C 964.617,257.799 964.566,260.035 964.566,261.330 L 964.566,270.763 L 967.000,270.763 L 967.000,253.237 L 963.374,253.237 L 959.941,263.295 C 959.628,264.258 959.124,266.212 958.749,267.774 C 958.385,266.174 957.881,264.236 957.568,263.295 L 954.083,253.237 L 950.478,253.237 L 950.478,270.763 Z" fill="#747D88" fill-rule="evenodd"/>
</svg>