<?xml version="1.0" encoding="UTF-8"?>
<svg xmlns="http://www.w3.org/2000/svg" width="550" height="510" viewBox="55 65 275 255" role="img" aria-labelledby="logoTitle logoDesc">
  <title id="logoTitle">XJOURNEY</title>
  <desc id="logoDesc">Growth Navigation Platform</desc>
  <defs>
    <linearGradient id="logoGradient" x1="7%" y1="93%" x2="93%" y2="7%">
      <stop offset="0" stop-color="#9BE724"/>
      <stop offset="0.30" stop-color="#39CE61"/>
      <stop offset="0.64" stop-color="#05BF8D"/>
      <stop offset="1" stop-color="#04AEC0"/>
    </linearGradient>
    <linearGradient id="wordGradient" x1="0" y1="0" x2="0" y2="1">
      <stop offset="0" stop-color="#10171F"/>
      <stop offset="0.55" stop-color="#0A1016"/>
      <stop offset="1" stop-color="#05090E"/>
    </linearGradient>
  </defs>
  
  <path d="M 195.0,239.0 L 195.0,241.0 L 238.0,284.0 L 244.0,287.0 L 252.0,289.0 L 293.0,289.0 L 289.0,283.0 L 222.0,215.0 Z" fill="url(#logoGradient)" fill-rule="evenodd"/>
<path d="M 84.0,127.0 L 148.0,193.0 L 153.0,191.0 L 164.0,181.0 L 178.0,171.0 L 175.0,166.0 L 142.0,133.0 L 136.0,129.0 L 130.0,127.0 Z" fill="url(#logoGradient)" fill-rule="evenodd"/>
<path d="M 308.0,90.0 L 247.0,105.0 L 215.0,126.0 L 218.0,126.0 L 221.0,124.0 L 244.0,118.0 L 247.0,119.0 L 79.0,286.0 L 76.0,294.0 L 116.0,294.0 L 126.0,290.0 L 281.0,133.0 L 283.0,132.0 L 291.0,136.0 Z" fill="url(#logoGradient)" fill-rule="evenodd"/>
</svg>