<svg xmlns="http://www.w3.org/2000/svg" width="360" height="260" viewBox="0 0 360 260" role="img"><title>内容已删除</title><defs><linearGradient id="life" x1="0" y1="1" x2="1" y2="0"><stop stop-color="#96E42D"/><stop offset=".55" stop-color="#22C55E"/><stop offset="1" stop-color="#04BFA5"/></linearGradient><linearGradient id="study" x1="0" y1="1" x2="1" y2="0"><stop stop-color="#60A5FA"/><stop offset=".55" stop-color="#2F7DF6"/><stop offset="1" stop-color="#1748B7"/></linearGradient><filter id="soft"><feDropShadow dx="0" dy="8" stdDeviation="10" flood-color="#0F1E35" flood-opacity=".12"/></filter></defs><rect width="360" height="260" rx="28" fill="#FAFCFF"/><path d="M36 47C95 5 242 7 324 48" fill="none" stroke="#EAF1F8" stroke-width="18" stroke-linecap="round"/><path d="M46 211c70 33 195 32 268-5" fill="none" stroke="#EFF5FA" stroke-width="14" stroke-linecap="round"/><g filter="url(#soft)"><path d="M127 78h106l-8 103h-90Z" fill="#F2F5F8" stroke="#C8D1DC" stroke-width="4"/><path d="M112 78h136M154 78V61h52v17" stroke="#718096" stroke-width="7" stroke-linecap="round"/><path d="M158 105v48M180 105v48M202 105v48" stroke="#B5BFCC" stroke-width="7" stroke-linecap="round"/><circle cx="230" cy="168" r="25" fill="#FFF" stroke="#DCE5F0" stroke-width="3"/><path d="m218 156 24 24M242 156l-24 24" stroke="#EF4444" stroke-width="6" stroke-linecap="round"/></g><text x="180" y="211" text-anchor="middle" font-family="PingFang SC,Arial" font-size="18" font-weight="700" fill="#0F1E35">内容已删除</text><text x="180" y="236" text-anchor="middle" font-family="PingFang SC,Arial" font-size="12" fill="#718096">该内容已无法继续查看</text></svg>