<svg xmlns="http://www.w3.org/2000/svg" width="360" height="260" viewBox="0 0 360 260" role="img"><title>暂无内容</title><defs><linearGradient id="life" x1="0" y1="1" x2="1" y2="0"><stop stop-color="#96E42D"/><stop offset=".55" stop-color="#22C55E"/><stop offset="1" stop-color="#04BFA5"/></linearGradient><linearGradient id="study" x1="0" y1="1" x2="1" y2="0"><stop stop-color="#60A5FA"/><stop offset=".55" stop-color="#2F7DF6"/><stop offset="1" stop-color="#1748B7"/></linearGradient><filter id="soft"><feDropShadow dx="0" dy="8" stdDeviation="10" flood-color="#0F1E35" flood-opacity=".12"/></filter></defs><rect width="360" height="260" rx="28" fill="#FAFCFF"/><path d="M36 47C95 5 242 7 324 48" fill="none" stroke="#EAF1F8" stroke-width="18" stroke-linecap="round"/><path d="M46 211c70 33 195 32 268-5" fill="none" stroke="#EFF5FA" stroke-width="14" stroke-linecap="round"/><g filter="url(#soft)"><path d="M113 93h134l15 73H98Z" fill="#FFF" stroke="#DCE5F0" stroke-width="3"/><path d="m98 126 33-38h98l33 38" fill="#EAF8F0"/><path d="M138 126h84l-8 40h-68Z" fill="#F8FBFD"/><path d="M165 139h30" stroke="#22C55E" stroke-width="6" stroke-linecap="round"/><path d="M171 86 180 71l9 15" fill="none" stroke="url(#life)" stroke-width="6" stroke-linecap="round" stroke-linejoin="round"/><path d="M151 82l-12-13M209 82l12-13" stroke="#2F7DF6" stroke-width="5" stroke-linecap="round"/></g><text x="180" y="211" text-anchor="middle" font-family="PingFang SC,Arial" font-size="18" font-weight="700" fill="#0F1E35">暂无内容</text><text x="180" y="236" text-anchor="middle" font-family="PingFang SC,Arial" font-size="12" fill="#718096">这里还没有可展示的内容</text></svg>