<svg xmlns="http://www.w3.org/2000/svg" width="360" height="260" viewBox="0 0 360 260" role="img"><title>图片加载失败</title><defs><linearGradient id="life" x1="0" y1="1" x2="1" y2="0"><stop stop-color="#96E42D"/><stop offset=".55" stop-color="#22C55E"/><stop offset="1" stop-color="#04BFA5"/></linearGradient><linearGradient id="study" x1="0" y1="1" x2="1" y2="0"><stop stop-color="#60A5FA"/><stop offset=".55" stop-color="#2F7DF6"/><stop offset="1" stop-color="#1748B7"/></linearGradient><filter id="soft"><feDropShadow dx="0" dy="8" stdDeviation="10" flood-color="#0F1E35" flood-opacity=".12"/></filter></defs><rect width="360" height="260" rx="28" fill="#FAFCFF"/><path d="M36 47C95 5 242 7 324 48" fill="none" stroke="#EAF1F8" stroke-width="18" stroke-linecap="round"/><path d="M46 211c70 33 195 32 268-5" fill="none" stroke="#EFF5FA" stroke-width="14" stroke-linecap="round"/><g filter="url(#soft)"><rect x="103" y="58" width="154" height="121" rx="18" fill="#FFF" stroke="#DCE5F0" stroke-width="4"/><circle cx="145" cy="100" r="15" fill="#D7E1EC"/><path d="m117 159 45-43 31 29 19-18 31 32" fill="#EDF2F7" stroke="#AAB7C6" stroke-width="7" stroke-linejoin="round"/><circle cx="244" cy="161" r="25" fill="#EF4444" stroke="#FFF" stroke-width="4"/><path d="M244 147v16M244 170h.01" stroke="#FFF" stroke-width="6" stroke-linecap="round"/></g><text x="180" y="211" text-anchor="middle" font-family="PingFang SC,Arial" font-size="18" font-weight="700" fill="#0F1E35">图片加载失败</text><text x="180" y="236" text-anchor="middle" font-family="PingFang SC,Arial" font-size="12" fill="#718096">可重试或使用默认占位图</text></svg>