<svg xmlns="http://www.w3.org/2000/svg" width="360" height="260" viewBox="0 0 360 260" role="img"><title>正在加载</title><defs><linearGradient id="life" x1="0" y1="1" x2="1" y2="0"><stop stop-color="#96E42D"/><stop offset=".55" stop-color="#22C55E"/><stop offset="1" stop-color="#04BFA5"/></linearGradient><linearGradient id="study" x1="0" y1="1" x2="1" y2="0"><stop stop-color="#60A5FA"/><stop offset=".55" stop-color="#2F7DF6"/><stop offset="1" stop-color="#1748B7"/></linearGradient><filter id="soft"><feDropShadow dx="0" dy="8" stdDeviation="10" flood-color="#0F1E35" flood-opacity=".12"/></filter></defs><rect width="360" height="260" rx="28" fill="#FAFCFF"/><path d="M36 47C95 5 242 7 324 48" fill="none" stroke="#EAF1F8" stroke-width="18" stroke-linecap="round"/><path d="M46 211c70 33 195 32 268-5" fill="none" stroke="#EFF5FA" stroke-width="14" stroke-linecap="round"/><g filter="url(#soft)"><path d="M126 157 222 61l18-4-5 18-96 96c-5 5-12 8-19 8h-17l8-17Z" fill="url(#life)"/><path d="m125 79 35 35-17 18-36-36Z" fill="#65D67C"/><path d="m202 137 42 42h-24l-31-30Z" fill="#14B8C4"/><path d="M218 58l25-6-7 25Z" fill="#04BFA5"/></g><path d="M115 180h130" stroke="#DDE7F0" stroke-width="8" stroke-linecap="round"/><path d="M115 180h70" stroke="url(#study)" stroke-width="8" stroke-linecap="round"/><text x="180" y="211" text-anchor="middle" font-family="PingFang SC,Arial" font-size="18" font-weight="700" fill="#0F1E35">正在加载</text><text x="180" y="236" text-anchor="middle" font-family="PingFang SC,Arial" font-size="12" fill="#718096">X 标志将按顺序绘制</text></svg>