<svg xmlns="http://www.w3.org/2000/svg" width="360" height="260" viewBox="0 0 360 260" role="img"><title>网络连接失败</title><defs><linearGradient id="life" x1="0" y1="1" x2="1" y2="0"><stop stop-color="#96E42D"/><stop offset=".55" stop-color="#22C55E"/><stop offset="1" stop-color="#04BFA5"/></linearGradient><linearGradient id="study" x1="0" y1="1" x2="1" y2="0"><stop stop-color="#60A5FA"/><stop offset=".55" stop-color="#2F7DF6"/><stop offset="1" stop-color="#1748B7"/></linearGradient><filter id="soft"><feDropShadow dx="0" dy="8" stdDeviation="10" flood-color="#0F1E35" flood-opacity=".12"/></filter></defs><rect width="360" height="260" rx="28" fill="#FAFCFF"/><path d="M36 47C95 5 242 7 324 48" fill="none" stroke="#EAF1F8" stroke-width="18" stroke-linecap="round"/><path d="M46 211c70 33 195 32 268-5" fill="none" stroke="#EFF5FA" stroke-width="14" stroke-linecap="round"/><g filter="url(#soft)"><path d="M99 113c50-51 112-51 162 0" fill="none" stroke="#E6EDF5" stroke-width="17" stroke-linecap="round"/><path d="M126 137c34-32 74-32 108 0" fill="none" stroke="#C9DAF5" stroke-width="15" stroke-linecap="round"/><path d="M153 159c17-15 37-15 54 0" fill="none" stroke="url(#study)" stroke-width="13" stroke-linecap="round"/><circle cx="180" cy="177" r="9" fill="#2F7DF6"/><path d="m117 77 126 102" stroke="#EF4444" stroke-width="10" stroke-linecap="round"/><path d="M216 62h32l15 15v32" fill="#FFF" stroke="#DCE5F0" stroke-width="3"/><path d="m230 78 18 18M248 78l-18 18" stroke="#EF4444" stroke-width="4" stroke-linecap="round"/></g><text x="180" y="211" text-anchor="middle" font-family="PingFang SC,Arial" font-size="18" font-weight="700" fill="#0F1E35">网络连接失败</text><text x="180" y="236" text-anchor="middle" font-family="PingFang SC,Arial" font-size="12" fill="#718096">检查网络后重新加载</text></svg>