<svg xmlns="http://www.w3.org/2000/svg" width="360" height="260" viewBox="0 0 360 260" role="img"><title>暂无访问权限</title><defs><linearGradient id="life" x1="0" y1="1" x2="1" y2="0"><stop stop-color="#96E42D"/><stop offset=".55" stop-color="#22C55E"/><stop offset="1" stop-color="#04BFA5"/></linearGradient><linearGradient id="study" x1="0" y1="1" x2="1" y2="0"><stop stop-color="#60A5FA"/><stop offset=".55" stop-color="#2F7DF6"/><stop offset="1" stop-color="#1748B7"/></linearGradient><filter id="soft"><feDropShadow dx="0" dy="8" stdDeviation="10" flood-color="#0F1E35" flood-opacity=".12"/></filter></defs><rect width="360" height="260" rx="28" fill="#FAFCFF"/><path d="M36 47C95 5 242 7 324 48" fill="none" stroke="#EAF1F8" stroke-width="18" stroke-linecap="round"/><path d="M46 211c70 33 195 32 268-5" fill="none" stroke="#EFF5FA" stroke-width="14" stroke-linecap="round"/><g filter="url(#soft)"><path d="M180 48 254 76v50c0 42-31 67-74 85-43-18-74-43-74-85V76Z" fill="#F1F6FF" stroke="#BFD1EE" stroke-width="4"/><path d="M180 62v132c35-16 58-37 58-69V87Z" fill="#E4EEFF"/><rect x="146" y="105" width="68" height="58" rx="14" fill="url(#study)"/><path d="M158 105V91c0-14 8-23 22-23s22 9 22 23v14" fill="none" stroke="#2F7DF6" stroke-width="9" stroke-linecap="round"/><circle cx="180" cy="132" r="8" fill="#FFF"/><path d="M180 139v10" stroke="#FFF" stroke-width="5" stroke-linecap="round"/></g><text x="180" y="211" text-anchor="middle" font-family="PingFang SC,Arial" font-size="18" font-weight="700" fill="#0F1E35">暂无访问权限</text><text x="180" y="236" text-anchor="middle" font-family="PingFang SC,Arial" font-size="12" fill="#718096">该内容仅对指定用户开放</text></svg>