<svg xmlns="http://www.w3.org/2000/svg" width="360" height="260" viewBox="0 0 360 260" role="img"><title>未找到结果</title><defs><linearGradient id="life" x1="0" y1="1" x2="1" y2="0"><stop stop-color="#96E42D"/><stop offset=".55" stop-color="#22C55E"/><stop offset="1" stop-color="#04BFA5"/></linearGradient><linearGradient id="study" x1="0" y1="1" x2="1" y2="0"><stop stop-color="#60A5FA"/><stop offset=".55" stop-color="#2F7DF6"/><stop offset="1" stop-color="#1748B7"/></linearGradient><filter id="soft"><feDropShadow dx="0" dy="8" stdDeviation="10" flood-color="#0F1E35" flood-opacity=".12"/></filter></defs><rect width="360" height="260" rx="28" fill="#FAFCFF"/><path d="M36 47C95 5 242 7 324 48" fill="none" stroke="#EAF1F8" stroke-width="18" stroke-linecap="round"/><path d="M46 211c70 33 195 32 268-5" fill="none" stroke="#EFF5FA" stroke-width="14" stroke-linecap="round"/><g filter="url(#soft)"><rect x="102" y="62" width="128" height="111" rx="18" fill="#FFF" stroke="#DCE5F0" stroke-width="3"/><rect x="120" y="81" width="91" height="13" rx="6.5" fill="#EEF3F8"/><rect x="120" y="105" width="66" height="10" rx="5" fill="#EEF3F8"/><rect x="120" y="126" width="80" height="10" rx="5" fill="#EEF3F8"/><circle cx="222" cy="137" r="31" fill="#F2F8FF" stroke="url(#study)" stroke-width="7"/><path d="m245 160 24 24" stroke="#2F7DF6" stroke-width="9" stroke-linecap="round"/><path d="M211 137h22M222 126v22" stroke="#60A5FA" stroke-width="4" stroke-linecap="round" opacity=".45"/></g><text x="180" y="211" text-anchor="middle" font-family="PingFang SC,Arial" font-size="18" font-weight="700" fill="#0F1E35">未找到结果</text><text x="180" y="236" text-anchor="middle" font-family="PingFang SC,Arial" font-size="12" fill="#718096">试试调整关键词或筛选条件</text></svg>