<svg xmlns="http://www.w3.org/2000/svg" width="360" height="260" viewBox="0 0 360 260" role="img"><title>操作成功</title><defs><linearGradient id="life" x1="0" y1="1" x2="1" y2="0"><stop stop-color="#96E42D"/><stop offset=".55" stop-color="#22C55E"/><stop offset="1" stop-color="#04BFA5"/></linearGradient><linearGradient id="study" x1="0" y1="1" x2="1" y2="0"><stop stop-color="#60A5FA"/><stop offset=".55" stop-color="#2F7DF6"/><stop offset="1" stop-color="#1748B7"/></linearGradient><filter id="soft"><feDropShadow dx="0" dy="8" stdDeviation="10" flood-color="#0F1E35" flood-opacity=".12"/></filter></defs><rect width="360" height="260" rx="28" fill="#FAFCFF"/><path d="M36 47C95 5 242 7 324 48" fill="none" stroke="#EAF1F8" stroke-width="18" stroke-linecap="round"/><path d="M46 211c70 33 195 32 268-5" fill="none" stroke="#EFF5FA" stroke-width="14" stroke-linecap="round"/><g filter="url(#soft)"><circle cx="180" cy="119" r="72" fill="#EAF9F0"/><circle cx="180" cy="119" r="55" fill="url(#life)"/><path d="m146 120 22 22 47-55" fill="none" stroke="#FFF" stroke-width="12" stroke-linecap="round" stroke-linejoin="round"/><path d="M119 74 99 62M241 74l20-12M180 49V28" stroke="#2F7DF6" stroke-width="6" stroke-linecap="round"/><path d="M119 164 99 176M241 164l20 12" stroke="#22C55E" stroke-width="6" stroke-linecap="round"/></g><text x="180" y="211" text-anchor="middle" font-family="PingFang SC,Arial" font-size="18" font-weight="700" fill="#0F1E35">操作成功</text><text x="180" y="236" text-anchor="middle" font-family="PingFang SC,Arial" font-size="12" fill="#718096">数据已经安全保存</text></svg>