<svg xmlns="http://www.w3.org/2000/svg" width="48" height="48" viewBox="0 0 48 48" role="img"><title>Calendar</title><defs>
<linearGradient id="gLife" x1="0" y1="1" x2="1" y2="0"><stop stop-color="#96E42D"/><stop offset=".5" stop-color="#22C55E"/><stop offset="1" stop-color="#04BFA5"/></linearGradient>
<linearGradient id="gStudy" x1="0" y1="1" x2="1" y2="0"><stop stop-color="#60A5FA"/><stop offset=".55" stop-color="#2F7DF6"/><stop offset="1" stop-color="#1748B7"/></linearGradient>
<linearGradient id="gWarm" x1="0" y1="0" x2="1" y2="1"><stop stop-color="#FFD36A"/><stop offset="1" stop-color="#F59E0B"/></linearGradient>
<linearGradient id="gDanger" x1="0" y1="0" x2="1" y2="1"><stop stop-color="#FF8B7B"/><stop offset="1" stop-color="#EF4444"/></linearGradient>
<filter id="shadow" x="-30%" y="-30%" width="160%" height="170%"><feDropShadow dx="0" dy="3" stdDeviation="3" flood-color="#081426" flood-opacity=".18"/></filter>
</defs><rect x="6" y="9" width="36" height="34" rx="8" fill="white" stroke="#DCE5F0" stroke-width="2" filter="url(#shadow)"/><path d="M6 18h36V12a3 3 0 0 0-3-3H9a3 3 0 0 0-3 3Z" fill="url(#gLife)"/><path d="M15 5v9M33 5v9" stroke="#129B52" stroke-width="4" stroke-linecap="round"/><g fill="#BDEFD0"><rect x="12" y="23" width="6" height="6" rx="2"/><rect x="21" y="23" width="6" height="6" rx="2"/><rect x="30" y="23" width="6" height="6" rx="2"/><rect x="12" y="32" width="6" height="6" rx="2"/><rect x="21" y="32" width="6" height="6" rx="2"/></g><rect x="30" y="32" width="6" height="6" rx="2" fill="#2F7DF6"/></svg>