<svg xmlns="http://www.w3.org/2000/svg" width="48" height="48" viewBox="0 0 48 48" role="img"><title>Feed</title><defs>
<linearGradient id="gLife" x1="0" y1="1" x2="1" y2="0"><stop stop-color="#96E42D"/><stop offset=".5" stop-color="#22C55E"/><stop offset="1" stop-color="#04BFA5"/></linearGradient>
<linearGradient id="gStudy" x1="0" y1="1" x2="1" y2="0"><stop stop-color="#60A5FA"/><stop offset=".55" stop-color="#2F7DF6"/><stop offset="1" stop-color="#1748B7"/></linearGradient>
<linearGradient id="gWarm" x1="0" y1="0" x2="1" y2="1"><stop stop-color="#FFD36A"/><stop offset="1" stop-color="#F59E0B"/></linearGradient>
<linearGradient id="gDanger" x1="0" y1="0" x2="1" y2="1"><stop stop-color="#FF8B7B"/><stop offset="1" stop-color="#EF4444"/></linearGradient>
<filter id="shadow" x="-30%" y="-30%" width="160%" height="170%"><feDropShadow dx="0" dy="3" stdDeviation="3" flood-color="#081426" flood-opacity=".18"/></filter>
</defs><rect x="3" y="3" width="42" height="42" rx="13" fill="url(#gLife)" filter="url(#shadow)"/><path d="M7 32C16 20 27 12 42 8" fill="none" stroke="white" stroke-opacity=".18" stroke-width="5" stroke-linecap="round"/><rect x="11" y="12" width="25" height="19" rx="4" fill="white"/><rect x="15" y="16" width="8" height="8" rx="2" fill="#B8F0CC"/><path d="M26 17h6M26 21h6M15 27h17" stroke="#129B52" stroke-width="2.2" stroke-linecap="round"/><rect x="15" y="33" width="22" height="5" rx="2.5" fill="#E7FFF0"/><path d="M34 10l1.2 2.8L38 14l-2.8 1.2L34 18l-1.2-2.8L30 14l2.8-1.2Z" fill="#FFF"/></svg>