<svg xmlns="http://www.w3.org/2000/svg" width="48" height="48" viewBox="0 0 48 48" role="img"><title>Messages</title><defs>
<linearGradient id="gLife" x1="0" y1="1" x2="1" y2="0"><stop stop-color="#96E42D"/><stop offset=".5" stop-color="#22C55E"/><stop offset="1" stop-color="#04BFA5"/></linearGradient>
<linearGradient id="gStudy" x1="0" y1="1" x2="1" y2="0"><stop stop-color="#60A5FA"/><stop offset=".55" stop-color="#2F7DF6"/><stop offset="1" stop-color="#1748B7"/></linearGradient>
<linearGradient id="gWarm" x1="0" y1="0" x2="1" y2="1"><stop stop-color="#FFD36A"/><stop offset="1" stop-color="#F59E0B"/></linearGradient>
<linearGradient id="gDanger" x1="0" y1="0" x2="1" y2="1"><stop stop-color="#FF8B7B"/><stop offset="1" stop-color="#EF4444"/></linearGradient>
<filter id="shadow" x="-30%" y="-30%" width="160%" height="170%"><feDropShadow dx="0" dy="3" stdDeviation="3" flood-color="#081426" flood-opacity=".18"/></filter>
</defs><rect x="3" y="3" width="42" height="42" rx="13" fill="url(#gStudy)" filter="url(#shadow)"/><path d="M7 32C16 20 27 12 42 8" fill="none" stroke="white" stroke-opacity=".18" stroke-width="5" stroke-linecap="round"/><path d="M10 13h25a5 5 0 0 1 5 5v11a5 5 0 0 1-5 5H24l-8 6v-6h-6a4 4 0 0 1-4-4V17a4 4 0 0 1 4-4Z" fill="white"/><circle cx="17" cy="24" r="2.2" fill="#2F7DF6"/><circle cx="24" cy="24" r="2.2" fill="#60A5FA"/><circle cx="31" cy="24" r="2.2" fill="#2F7DF6"/><path d="M35 8l1.3 3.2L40 12.5l-3.7 1.3L35 17l-1.3-3.2-3.7-1.3 3.7-1.3Z" fill="#FFF"/></svg>