<svg xmlns="http://www.w3.org/2000/svg" width="48" height="48" viewBox="0 0 48 48" role="img"><title>Phone</title><defs>
<linearGradient id="gLife" x1="0" y1="1" x2="1" y2="0"><stop stop-color="#96E42D"/><stop offset=".5" stop-color="#22C55E"/><stop offset="1" stop-color="#04BFA5"/></linearGradient>
<linearGradient id="gStudy" x1="0" y1="1" x2="1" y2="0"><stop stop-color="#60A5FA"/><stop offset=".55" stop-color="#2F7DF6"/><stop offset="1" stop-color="#1748B7"/></linearGradient>
<linearGradient id="gWarm" x1="0" y1="0" x2="1" y2="1"><stop stop-color="#FFD36A"/><stop offset="1" stop-color="#F59E0B"/></linearGradient>
<linearGradient id="gDanger" x1="0" y1="0" x2="1" y2="1"><stop stop-color="#FF8B7B"/><stop offset="1" stop-color="#EF4444"/></linearGradient>
<filter id="shadow" x="-30%" y="-30%" width="160%" height="170%"><feDropShadow dx="0" dy="3" stdDeviation="3" flood-color="#081426" flood-opacity=".18"/></filter>
</defs><path d="M14 6h8l4 11-6 4c3 6 7 10 13 13l4-6 11 4v8c0 3-2 5-5 5C22 45 3 26 3 5c0-3 2-5 5-5Z" transform="translate(-1 1) scale(.95)" fill="url(#gLife)" filter="url(#shadow)"/><path d="M31 8c6 1 10 5 11 11M31 14c3 .5 5 2.5 5.5 5.5" fill="none" stroke="#2F7DF6" stroke-width="3" stroke-linecap="round"/></svg>