<svg xmlns="http://www.w3.org/2000/svg" width="48" height="48" viewBox="0 0 48 48" role="img"><title>Team</title><defs>
<linearGradient id="gLife" x1="0" y1="1" x2="1" y2="0"><stop stop-color="#96E42D"/><stop offset=".5" stop-color="#22C55E"/><stop offset="1" stop-color="#04BFA5"/></linearGradient>
<linearGradient id="gStudy" x1="0" y1="1" x2="1" y2="0"><stop stop-color="#60A5FA"/><stop offset=".55" stop-color="#2F7DF6"/><stop offset="1" stop-color="#1748B7"/></linearGradient>
<linearGradient id="gWarm" x1="0" y1="0" x2="1" y2="1"><stop stop-color="#FFD36A"/><stop offset="1" stop-color="#F59E0B"/></linearGradient>
<linearGradient id="gDanger" x1="0" y1="0" x2="1" y2="1"><stop stop-color="#FF8B7B"/><stop offset="1" stop-color="#EF4444"/></linearGradient>
<filter id="shadow" x="-30%" y="-30%" width="160%" height="170%"><feDropShadow dx="0" dy="3" stdDeviation="3" flood-color="#081426" flood-opacity=".18"/></filter>
</defs><circle cx="24" cy="16" r="8" fill="url(#gStudy)"/><circle cx="11" cy="22" r="6" fill="#BFD6FF"/><circle cx="37" cy="22" r="6" fill="#BFD6FF"/><path d="M11 42c1-9 6-14 13-14s12 5 13 14" fill="url(#gStudy)"/><path d="M1 42c.8-7 4-11 10-11 3 0 5.4 1 7.2 3M47 42c-.8-7-4-11-10-11-3 0-5.4 1-7.2 3" fill="#DCE8FF"/><circle cx="38" cy="10" r="7" fill="url(#gLife)" stroke="white" stroke-width="2"/><path d="M38 6v8M34 10h8" stroke="white" stroke-width="2.2" stroke-linecap="round"/></svg>